<?xml version="1.0" standalone="no"?>
<!DOCTYPE svg PUBLIC "-//W3C//DTD SVG 20010904//EN"
 "http://www.w3.org/TR/2001/REC-SVG-20010904/DTD/svg10.dtd">
<svg version="1.0" xmlns="http://www.w3.org/2000/svg"
 width="128.000000pt" height="128.000000pt" viewBox="0 0 128.000000 128.000000"
 preserveAspectRatio="xMidYMid meet">

<g transform="translate(0.000000,128.000000) scale(0.100000,-0.100000)"
fill="#735ED9" stroke="none">
<path d="M0 640 l0 -640 640 0 640 0 0 640 0 640 -640 0 -640 0 0 -640z m941
284 c165 -85 299 -161 299 -168 0 -7 -54 -41 -120 -75 l-120 -62 0 -148 c0
-166 0 -166 -85 -209 -83 -42 -155 -56 -275 -56 -120 0 -192 14 -275 56 -85
43 -85 43 -85 210 l0 148 -92 47 c-51 26 -96 49 -100 51 -4 2 -9 -81 -10 -185
-3 -159 -5 -188 -18 -188 -13 0 -15 31 -18 211 l-2 212 297 156 c164 85 300
155 302 156 2 0 138 -70 302 -156z"/>
<path d="M372 896 c-140 -73 -254 -136 -253 -141 0 -8 506 -275 522 -275 20 0
530 273 522 280 -17 16 -511 270 -524 270 -8 -1 -128 -61 -267 -134z"/>
<path d="M320 462 l0 -129 48 -25 c90 -48 149 -62 267 -63 122 0 180 12 267
58 l58 30 0 128 c0 71 -3 129 -7 129 -3 0 -75 -36 -159 -80 l-153 -80 -154 80
c-85 44 -157 80 -160 80 -4 0 -7 -58 -7 -128z"/>
</g>
</svg>
