<svg xmlns="http://www.w3.org/2000/svg" width="512" height="512" viewBox="0 0 512 512" version="1.1"><path d="M 360.935 28.135 C 367.557 29.234, 382.693 34.333, 389.500 37.758 C 407.514 46.824, 427.399 64.719, 439.232 82.512 C 451.981 101.685, 461.376 125.108, 465.497 148 C 467.764 160.592, 468.570 187.847, 467.067 201.093 C 463.194 235.222, 448.423 276.682, 427.197 313 C 406.444 348.508, 383.814 377.318, 350.565 410.560 C 328.364 432.756, 313.237 445.894, 291 462.293 C 270.937 477.089, 271.291 477.253, 293.978 463.671 C 369.719 418.328, 437.484 354.322, 474.324 293.327 C 499.472 251.690, 511.053 216.087, 511.060 180.393 C 511.064 156.090, 506.747 136.393, 496.653 114.663 C 477.382 73.180, 435.216 39.647, 390.959 30.609 C 381.274 28.631, 366.892 26.986, 360.500 27.125 L 355.500 27.234 360.935 28.135 M 394.898 99.263 C 390.373 102.277, 387.591 108.009, 388.445 112.558 C 389.292 117.073, 394.927 122.708, 399.442 123.555 C 406.408 124.862, 415 117.700, 415 110.587 C 415 106.121, 411.894 100.948, 407.938 98.827 C 403.373 96.379, 399.009 96.525, 394.898 99.263 M 409.336 142.021 C 397.452 144.433, 388.807 155.432, 388.867 168.064 C 388.978 191.306, 417.732 202.729, 433.693 185.872 C 445.991 172.886, 442.073 150.947, 426.257 144.233 C 420.233 141.676, 414.642 140.945, 409.336 142.021" stroke="none" fill="#fca185" fill-rule="evenodd"/><path d="M 137.352 27.025 C 73.756 33.724, 20.020 80.201, 4.463 141.964 C -0.178 160.386, -1.338 184.544, 1.510 203.441 C 15.697 297.570, 112.331 408.154, 241.759 478.372 L 256.017 486.108 262.928 482.328 C 266.729 480.250, 269.581 478.131, 269.265 477.620 C 268.949 477.109, 269.216 477.015, 269.858 477.412 C 270.499 477.809, 273.606 476.684, 276.762 474.914 C 382.085 415.828, 465.552 330.343, 498.318 248 C 502.860 236.587, 507.554 221.221, 506.746 220.412 C 506.514 220.181, 505.367 223.571, 504.196 227.946 C 497.861 251.614, 481.017 285.153, 461.731 312.500 C 422.053 368.762, 361.767 423.089, 293.978 463.671 C 271.291 477.253, 270.937 477.089, 291 462.293 C 313.237 445.894, 328.364 432.756, 350.565 410.560 C 378.779 382.353, 394.140 363.835, 413.660 334.500 C 433.424 304.798, 446.660 278.080, 456.305 248.420 C 465.445 220.310, 468.544 200.146, 467.727 174.093 C 467.137 155.251, 465.299 143.542, 460.337 127 C 448.642 88.017, 421.552 53.888, 389.500 37.758 C 382.364 34.167, 366.891 29.025, 360.741 28.202 L 355.500 27.500 362 26.840 C 365.786 26.456, 362.864 26.337, 355 26.556 C 320.734 27.509, 291.671 37.797, 264.349 58.643 L 255.898 65.091 249.699 60.174 C 217.396 34.550, 177.543 22.791, 137.352 27.025 M 375.627 28.091 C 379.547 28.548, 385.847 29.572, 389.627 30.367 C 401.479 32.859, 402.626 33.011, 398 31.475 C 391.884 29.445, 377.397 26.978, 372.500 27.133 C 369.744 27.220, 370.716 27.518, 375.627 28.091 M 409 35.537 C 421.298 40.074, 439.582 50.032, 450.052 57.897 C 474.394 76.182, 492.319 100.402, 502.425 128.663 C 505.206 136.438, 508.943 150.684, 509.116 154.167 C 509.207 155.998, 509.334 156.105, 509.706 154.662 C 510.314 152.307, 506.493 136.773, 502.833 126.722 C 489.619 90.433, 459.791 57.581, 425.500 41.548 C 418.095 38.086, 404.851 32.984, 403.500 33.073 C 402.950 33.110, 405.425 34.218, 409 35.537 M 394.898 99.263 C 390.373 102.277, 387.591 108.009, 388.445 112.558 C 389.292 117.073, 394.927 122.708, 399.442 123.555 C 406.408 124.862, 415 117.700, 415 110.587 C 415 106.121, 411.894 100.948, 407.938 98.827 C 403.373 96.379, 399.009 96.525, 394.898 99.263 M 409.336 142.021 C 397.452 144.433, 388.807 155.432, 388.867 168.064 C 388.978 191.306, 417.732 202.729, 433.693 185.872 C 445.991 172.886, 442.073 150.947, 426.257 144.233 C 420.233 141.676, 414.642 140.945, 409.336 142.021 M 510.780 168 C 511.051 174.325, 511.436 179.688, 511.636 179.917 C 512.337 180.720, 511.877 164.459, 511.086 160.500 C 510.597 158.052, 510.478 160.962, 510.780 168 M 511.343 188.500 C 511.346 192.900, 511.522 194.576, 511.733 192.224 C 511.945 189.872, 511.942 186.272, 511.727 184.224 C 511.512 182.176, 511.339 184.100, 511.343 188.500 M 508.762 207.603 C 507.807 213.519, 507.198 218.531, 507.409 218.742 C 508.014 219.347, 511.233 200.435, 510.846 198.544 C 510.656 197.612, 509.718 201.688, 508.762 207.603" stroke="none" fill="#f8594b" fill-rule="evenodd"/></svg>