<?xml version="1.0" standalone="no"?>
<!DOCTYPE svg PUBLIC "-//W3C//DTD SVG 20010904//EN"
 "http://www.w3.org/TR/2001/REC-SVG-20010904/DTD/svg10.dtd">
<svg version="1.0" xmlns="http://www.w3.org/2000/svg"
 width="1024.000000pt" height="1024.000000pt" viewBox="0 0 1024.000000 1024.000000"
 preserveAspectRatio="xMidYMid meet">

<g transform="translate(0.000000,1024.000000) scale(0.100000,-0.100000)"
fill="#000000" stroke="none">
<path d="M6333 8013 c-12 -2 -34 -18 -48 -34 -35 -42 -33 -89 4 -131 24 -27
36 -33 71 -33 35 0 47 6 71 33 39 43 39 91 2 131 -29 31 -61 42 -100 34z"/>
<path d="M4935 7773 c-232 -27 -467 -85 -650 -159 -404 -165 -760 -453 -1004
-813 -115 -170 -218 -382 -266 -546 l-23 -80 -58 -23 c-133 -53 -290 -202
-363 -341 -59 -113 -81 -209 -81 -346 0 -140 22 -233 87 -358 84 -163 249
-307 403 -351 55 -16 56 -17 84 -84 132 -310 403 -670 635 -842 33 -25 60 -48
61 -51 0 -3 -19 -12 -42 -19 -151 -45 -330 -189 -417 -333 -130 -220 -132
-440 -3 -647 44 -71 83 -112 157 -165 59 -42 145 -85 170 -85 7 0 18 -23 25
-52 33 -141 140 -271 281 -341 71 -35 75 -38 93 -89 10 -29 29 -67 42 -85 13
-17 24 -34 24 -37 0 -3 -248 -6 -550 -6 -598 0 -593 0 -618 -55 -20 -44 -15
-84 17 -115 l28 -29 1919 -3 c1056 -2 2029 -1 2162 2 l244 5 24 28 c46 54 25
132 -43 158 -14 5 -252 9 -563 9 l-539 0 34 51 c18 28 38 71 44 95 7 26 19 47
29 51 174 58 291 185 331 358 11 47 15 51 54 64 107 33 234 139 301 249 69
114 81 160 81 307 0 115 -3 138 -27 203 -36 99 -80 170 -157 254 -76 82 -152
136 -273 193 l-90 41 29 19 c109 70 311 276 427 436 98 135 206 331 242 441
l19 56 79 27 c104 34 176 79 254 157 114 115 186 252 213 403 14 84 6 256 -16
340 -56 207 -218 394 -420 486 -59 26 -63 31 -74 73 -19 76 -88 245 -146 360
-167 328 -438 632 -735 824 -288 187 -629 313 -966 357 -103 13 -384 19 -469
8z m470 -214 c108 -14 301 -61 405 -99 152 -56 360 -164 489 -255 138 -98 335
-283 432 -405 229 -289 375 -668 410 -1068 10 -122 10 -405 -1 -415 -3 -3 -60
-7 -128 -9 l-122 -3 0 177 c0 301 -58 559 -185 824 -234 486 -704 846 -1250
957 -148 30 -499 32 -640 4 -185 -38 -392 -117 -565 -217 -230 -132 -482 -382
-628 -622 -167 -273 -252 -593 -252 -949 0 -276 52 -505 167 -737 79 -160 122
-228 221 -350 226 -279 526 -483 855 -582 314 -94 629 -107 927 -37 634 149
1161 670 1310 1295 l12 52 128 0 128 0 -14 -59 c-52 -225 -173 -498 -299 -675
-146 -205 -387 -429 -595 -554 -267 -160 -600 -270 -913 -303 -205 -22 -490
10 -738 81 -457 131 -873 433 -1137 826 -94 141 -200 367 -247 530 -99 341
-83 880 37 1238 66 198 181 418 294 563 116 148 313 338 454 436 286 199 669
342 985 367 113 9 340 4 460 -11z m-105 -480 c169 -21 412 -95 540 -166 367
-202 642 -521 765 -886 59 -178 69 -251 70 -517 0 -269 -9 -338 -66 -516 -106
-333 -330 -617 -637 -811 -164 -103 -283 -155 -475 -205 -120 -32 -126 -32
-347 -33 -248 0 -287 6 -494 72 -413 132 -732 406 -926 793 -115 228 -156 437
-147 742 6 208 23 318 72 465 102 304 343 624 605 800 90 60 270 150 377 187
96 33 257 71 333 79 79 8 251 6 330 -4z m-2354 -1166 c-3 -10 -13 -72 -23
-138 -32 -227 -21 -603 23 -729 8 -21 14 -45 14 -53 0 -41 -150 99 -190 177
-45 88 -62 153 -67 260 -7 128 6 195 54 293 50 99 210 260 189 190z m4442 -38
c163 -147 218 -390 141 -623 -35 -105 -115 -207 -203 -259 -33 -19 -35 -16
-20 40 26 97 54 321 54 432 0 95 -14 259 -35 413 -4 24 -2 42 3 42 6 0 32 -20
60 -45z m-3256 -2319 c212 -111 465 -190 703 -222 173 -23 526 -15 685 15 228
44 408 105 614 208 70 35 129 63 131 61 4 -5 64 -259 84 -358 26 -126 59 -400
65 -525 8 -200 -22 -309 -103 -376 -76 -62 -23 -60 -1197 -57 l-1069 3 -41 22
c-49 26 -110 92 -132 142 -26 62 -28 252 -3 452 34 269 116 699 133 699 4 0
63 -29 130 -64z m-406 -216 c-47 -214 -76 -410 -76 -518 0 -75 -12 -84 -67
-49 -77 49 -138 141 -163 246 -34 144 46 352 173 449 75 58 171 107 175 90 1
-8 -18 -106 -42 -218z m2869 175 c76 -49 171 -154 205 -227 71 -153 58 -303
-38 -434 -34 -46 -84 -88 -119 -99 -22 -6 -23 -4 -23 47 0 108 -32 324 -86
574 -19 89 -34 167 -34 173 0 17 35 5 95 -34z m-1263 -1463 c10 -27 29 -65 43
-86 14 -20 25 -39 25 -41 0 -3 -117 -5 -260 -5 -238 0 -283 4 -251 25 13 7 61
110 61 128 0 7 3 17 7 20 3 4 86 7 182 7 l176 0 17 -48z m-602 29 c0 -20 -93
-110 -135 -130 -59 -28 -172 -29 -230 -2 -44 20 -99 71 -121 114 l-15 27 251
0 c140 0 250 -4 250 -9z m1285 -18 c-99 -156 -295 -178 -416 -47 -74 81 -92
74 186 74 l247 0 -17 -27z"/>
<path d="M4135 5506 c-101 -48 -155 -134 -155 -245 1 -75 25 -126 90 -184 98
-88 209 -97 317 -24 35 24 56 49 81 97 31 59 34 71 30 130 -3 36 -13 80 -22
98 -67 130 -218 186 -341 128z"/>
<path d="M5945 5517 c-126 -48 -188 -153 -172 -287 7 -61 27 -99 75 -146 50
-50 108 -74 179 -75 70 -1 117 17 170 64 91 83 115 213 57 318 -61 109 -203
167 -309 126z"/>
<path d="M4779 4859 c-35 -37 -44 -82 -29 -140 32 -121 131 -215 267 -255 69
-20 204 -15 279 11 108 36 202 136 223 236 21 98 -24 179 -99 179 -54 0 -87
-30 -106 -98 -20 -66 -55 -106 -110 -121 -118 -33 -235 23 -250 120 -16 95
-113 134 -175 68z"/>
<path d="M5103 3011 c-84 -53 -83 -191 1 -242 91 -55 196 10 196 121 0 104
-113 174 -197 121z"/>
<path d="M5983 2930 c-51 -31 -66 -62 -61 -128 7 -94 56 -142 147 -142 42 0
56 5 86 31 45 40 62 93 45 145 -31 98 -136 144 -217 94z"/>
</g>
</svg>
