<?xml version="1.0" standalone="no"?>
<!DOCTYPE svg PUBLIC "-//W3C//DTD SVG 20010904//EN"
 "http://www.w3.org/TR/2001/REC-SVG-20010904/DTD/svg10.dtd">
<svg version="1.0" xmlns="http://www.w3.org/2000/svg"
 width="512.000000pt" height="512.000000pt" viewBox="0 0 512.000000 512.000000"
 preserveAspectRatio="xMidYMid meet">

<g transform="translate(0.000000,512.000000) scale(0.100000,-0.100000)"
fill="#000000" stroke="none">
<path d="M2410 5109 c-492 -27 -986 -209 -1385 -509 -95 -72 -283 -239 -297
-264 -7 -12 2 -18 42 -30 32 -10 59 -12 73 -7 64 24 166 48 177 41 10 -6 7
-30 -15 -109 l-28 -101 28 -95 c20 -70 25 -99 17 -107 -8 -8 -37 -3 -107 17
l-95 28 -101 -28 c-79 -22 -103 -25 -109 -15 -7 11 17 113 41 177 5 14 3 41
-7 73 l-15 51 -60 -73 c-291 -355 -497 -852 -549 -1322 -13 -126 -14 -425 0
-547 32 -288 112 -570 236 -828 l64 -134 0 -247 c0 -260 4 -290 47 -348 48
-64 79 -72 292 -72 l189 0 124 -98 c234 -187 432 -298 738 -414 291 -109 589
-156 929 -145 574 18 1065 201 1525 569 104 83 112 88 158 88 41 0 50 4 59 24
8 17 8 29 -1 45 -10 20 -5 29 47 88 352 397 559 810 647 1293 38 204 48 516
26 725 -44 403 -189 798 -419 1141 -65 96 -68 105 -79 185 -21 161 -76 276
-186 384 -117 115 -244 171 -416 181 -92 6 -98 8 -193 61 -320 181 -717 300
-1053 318 -60 3 -131 7 -159 9 -27 1 -111 -1 -185 -5z m246 -499 c184 -47 325
-187 379 -374 24 -83 17 -248 -15 -328 l-23 -58 -473 0 -473 0 -20 55 c-99
264 12 546 264 669 117 58 230 69 361 36z m1496 -13 c185 -67 307 -210 345
-406 14 -70 15 -96 5 -162 -6 -43 -21 -101 -33 -129 l-22 -50 -471 2 -471 3
-24 60 c-33 82 -40 217 -16 315 30 124 130 257 247 327 123 75 300 91 440 40z
m-1282 -897 c-128 -112 -312 -157 -474 -115 -78 20 -185 77 -226 120 l-34 35
390 0 389 -1 -45 -39z m1460 5 c-41 -43 -148 -100 -226 -120 -162 -42 -346 3
-474 115 l-45 39 389 1 390 0 -34 -35z m-3271 -63 c16 -33 42 -67 58 -77 46
-31 66 -53 60 -69 -9 -22 22 -29 49 -11 15 9 24 25 24 40 l0 25 145 0 145 0 0
-30 c0 -27 29 -70 48 -70 21 0 50 33 56 65 l7 35 271 0 271 0 86 -34 c175 -70
350 -67 514 9 l52 25 402 0 403 0 84 -35 c167 -69 330 -64 522 15 28 12 34 11
63 -9 59 -42 61 -54 61 -335 0 -238 -6 -302 -29 -307 -3 -1 -676 -3 -1496 -4
l-1490 -2 -60 -24 c-54 -21 -76 -23 -232 -24 -191 0 -202 3 -250 75 -22 32
-23 40 -23 284 0 236 1 253 21 285 14 24 17 37 10 44 -21 21 -10 37 47 66 37
19 69 45 91 75 19 25 41 46 48 46 7 0 26 -26 42 -58z m-500 -899 c19 -38 45
-70 75 -92 25 -19 46 -41 46 -48 0 -7 -26 -26 -57 -42 -38 -19 -70 -45 -92
-75 -19 -25 -41 -46 -48 -46 -7 0 -26 27 -43 59 -21 42 -43 69 -75 91 -60 42
-58 61 9 89 41 17 65 35 93 72 20 27 43 49 50 49 7 0 26 -26 42 -57z m4131 30
c0 -5 -7 -57 -15 -118 -19 -139 -19 -241 0 -380 8 -60 15 -113 15 -117 0 -5
-357 -8 -794 -8 l-793 0 -22 -59 c-80 -219 -357 -287 -533 -132 -39 34 -98
140 -98 175 l0 21 -538 0 -537 0 -67 33 c-79 39 -129 93 -158 169 -53 142 8
304 141 378 50 28 63 30 189 36 206 8 3210 10 3210 2z m-3439 -673 c80 -37
166 -50 342 -50 l137 0 0 -290 0 -290 -549 0 -550 0 -15 22 c-23 33 -24 504
-1 548 18 35 71 77 105 83 14 2 125 5 246 6 l222 1 63 -30z m1189 -335 l0
-285 -225 0 -225 0 0 285 0 285 225 0 225 0 0 -285z m1350 266 c6 -12 10 -117
10 -271 0 -154 -4 -259 -10 -271 -10 -18 -23 -19 -230 -19 l-220 0 0 290 0
290 220 0 c207 0 220 -1 230 -19z m-1350 -780 c0 -77 4 -132 10 -136 6 -4 75
39 155 94 79 56 150 104 157 106 8 3 83 -42 167 -100 85 -59 157 -103 162 -98
5 5 10 65 11 133 l3 125 620 0 620 0 0 -310 0 -310 -1918 -3 c-1702 -2 -1921
0 -1947 13 -60 31 -61 39 -58 309 4 316 -17 289 231 296 100 3 543 7 985 8
l802 2 0 -129z"/>
</g>
</svg>
